# xmcd
#
# Track frame offsets:
#	180
#	22524
#	48089
#	71348
#	92425
#	113156
#	130674
#	154074
#	171533
#	193710
#	210934
#	233114
#	257104
#	280987
#	289202
#	304909
#
# Disc length: 4204 seconds
#
# Revision: 3
# Processed by: cddbd v1.5.2PL0 Copyright (c) Steve Scherf et al.
# Submitted via: EasyCDDAExtractor 16.0.6.1
#
DISCID=d5106a10
DTITLE=Various Artist - Serie 32 Se Botó La Salsa
DYEAR=1997
DGENRE=Salsa
TTITLE0=India - Nunca Voy A Olvidarte
TTITLE1=Cheo Feliciano - Yo No Soy Un Angel
TTITLE2=Lalo Rodriguez - Ven, Devorame Otra Vez
TTITLE3=Edgar Joel - Hasta El Sol De Hoy
TTITLE4=Ray De La Paz - Si Vivir Contigo
TTITLE5=David Pabón - Y Nos Amamos
TTITLE6=Marc Anthony - Te Conozco Bien
TTITLE7=Guaco and Gilberto Santa Rosa - Ya No Eres Tu
TTITLE8=Frankie Ruiz - Tu Me Vuelves Loco
TTITLE9=Celia Cruz - Que Le Den Candela
TTITLE10=Orquesta De La Luz - Salsa Caliente Del Japon
TTITLE11=Andy Montañez - Casi Te envidio
TTITLE12=Marvin Santiago - Auditorio Azul
TTITLE13=Bobby Cruz - Jala Jala
TTITLE14=Bobby Cruz - Aguzate
TTITLE15=Bobby Cruz - Sonido Bestial
EXTD=
EXTT0=
EXTT1=
EXTT2=
EXTT3=
EXTT4=
EXTT5=
EXTT6=
EXTT7=
EXTT8=
EXTT9=
EXTT10=
EXTT11=
EXTT12=
EXTT13=
EXTT14=
EXTT15=
PLAYORDER=
